<svg version="1.1" id="Слой_1" xmlns="http://www.w3.org/2000/svg" xmlns:xlink="http://www.w3.org/1999/xlink" x="0px" y="0px" width="20.5px" height="20.5px" viewBox="0 0 20.5 20.5" style="enable-background:new 0 0 20.5 20.5;" xml:space="preserve">
<style type="text/css">
	.st0{fill:none;stroke:#FFFFFF;stroke-width:1.5;stroke-linecap:round;stroke-linejoin:round;stroke-miterlimit:10;}
</style>
<g>
	<g>
		<path class="st0" d="M15.195,13.319c-0.621-0.613-1.396-0.613-2.012,0c-0.471,0.467-0.941,0.933-1.404,1.408
			c-0.127,0.13-0.233,0.158-0.387,0.071c-0.304-0.166-0.629-0.3-0.921-0.482c-1.364-0.858-2.507-1.961-3.519-3.203
			c-0.502-0.617-0.949-1.277-1.261-2.02c-0.063-0.15-0.051-0.249,0.071-0.372c0.471-0.455,0.929-0.921,1.392-1.388
			c0.644-0.648,0.644-1.408-0.004-2.06C6.781,4.901,6.414,4.538,6.046,4.166c-0.38-0.38-0.755-0.763-1.139-1.139
			C4.287,2.422,3.512,2.422,2.895,3.031C2.42,3.498,1.966,3.976,1.483,4.435c-0.447,0.423-0.672,0.941-0.72,1.546
			C0.689,6.965,0.93,7.894,1.27,8.8c0.696,1.874,1.755,3.539,3.04,5.065c1.736,2.064,3.808,3.697,6.231,4.875
			c1.091,0.53,2.222,0.937,3.452,1.004c0.846,0.047,1.582-0.166,2.171-0.826c0.403-0.451,0.858-0.862,1.285-1.293
			c0.633-0.641,0.637-1.415,0.008-2.048C16.706,14.821,15.95,14.07,15.195,13.319z"/>
		<path class="st0" d="M15.899,9.919c-0.229-1.34-0.862-2.554-1.823-3.519c-1.016-1.016-2.301-1.657-3.717-1.854"/>
		<path class="st0" d="M19.75,9.666c-0.384-2.222-1.431-4.238-3.029-5.84c-1.684-1.684-3.815-2.748-6.168-3.076"/>
	</g>
</g>
</svg>
