<svg version="1.1" xmlns="http://www.w3.org/2000/svg" xmlns:xlink="http://www.w3.org/1999/xlink" x="0px" y="0px" width="27.5px" height="19.5px" viewBox="0 0 27.5 19.5" style="enable-background:new 0 0 27.5 19.5;" xml:space="preserve">
<style type="text/css">
	.st0{fill:none;stroke:#FFFFFF;stroke-width:1.5;stroke-linecap:round;stroke-linejoin:round;stroke-miterlimit:10;}
</style>
<path class="st0" d="M7.649,16.676c0,1.146-0.915,2.074-2.044,2.074s-2.044-0.929-2.044-2.074c0-1.146,0.915-2.074,2.044-2.074
	S7.649,15.53,7.649,16.676z M22.785,14.601c-1.129,0-2.044,0.929-2.044,2.074c0,1.146,0.915,2.074,2.044,2.074
	c1.129,0,2.044-0.929,2.044-2.074C24.829,15.53,23.914,14.601,22.785,14.601z M7.649,16.676h10.796V1.712
	c0-0.531-0.424-0.962-0.948-0.962h-15.8c-0.523,0-0.948,0.431-0.948,0.962v14.002c0,0.531,0.424,0.962,0.948,0.962h1.863
	 M24.829,16.676h1.921v-4.992l-2.364-3.565h-5.941 M18.445,16.676h2.295 M25.939,10.744h-2.447"/>
</svg>
