<svg version="1.1" id="Слой_1" xmlns="http://www.w3.org/2000/svg" xmlns:xlink="http://www.w3.org/1999/xlink" x="0px" y="0px"
	 width="13px" height="21px" viewBox="0 0 13 21" style="enable-background:new 0 0 13 21;" xml:space="preserve">
<style type="text/css">
	.st0{fill:#AFCA58;}
</style>
<g>
	<path class="st0" d="M11.315,21h-9.63C0.756,21,0,20.233,0,19.291V1.709C0,0.767,0.756,0,1.685,0h9.63C12.244,0,13,0.767,13,1.709
		v17.581C13,20.233,12.244,21,11.315,21z M1.444,16.357v2.934c0,0.133,0.11,0.244,0.241,0.244h9.63c0.131,0,0.241-0.112,0.241-0.244
		v-2.934H1.444z M1.444,14.892h10.111V1.709c0-0.133-0.11-0.244-0.241-0.244h-9.63c-0.131,0-0.241,0.112-0.241,0.244V14.892z
		 M7.714,18.686H5.286c-0.399,0-0.722-0.328-0.722-0.733c0-0.404,0.323-0.733,0.722-0.733h2.428c0.399,0,0.722,0.328,0.722,0.733
		C8.436,18.358,8.113,18.686,7.714,18.686z M3.386,8.606c-0.189,0-0.378-0.075-0.519-0.224C2.59,8.091,2.598,7.627,2.885,7.347
		l4.26-4.176c0.287-0.281,0.745-0.273,1.021,0.018c0.277,0.291,0.269,0.754-0.017,1.035L3.888,8.4
		C3.748,8.537,3.567,8.606,3.386,8.606z M3.439,5.682c-0.189,0-0.378-0.075-0.519-0.224C2.642,5.167,2.65,4.703,2.937,4.423
		l1.277-1.252c0.287-0.281,0.744-0.273,1.021,0.018c0.277,0.291,0.269,0.754-0.017,1.035L3.94,5.476
		C3.8,5.613,3.619,5.682,3.439,5.682z"/>
</g>
</svg>
