<svg xmlns="http://www.w3.org/2000/svg" xmlns:xlink="http://www.w3.org/1999/xlink" x="0px" y="0px"
	 width="20.5px" height="17.5px" viewBox="0 0 20.5 17.5" style="enable-background:new 0 0 20.5 17.5;" xml:space="preserve">
<style type="text/css">
	.st0{fill:none;stroke:#B9BAC5;stroke-width:1.5;stroke-linecap:round;stroke-linejoin:round;stroke-miterlimit:10;}
</style>
<path class="st0" d="M10.25,16.75c-0.27,0-0.531-0.093-0.735-0.261c-0.768-0.635-1.508-1.232-2.16-1.759l-0.003-0.003
	c-1.914-1.544-3.567-2.877-4.717-4.191C1.349,9.068,0.75,7.676,0.75,6.155c0-1.478,0.535-2.841,1.507-3.839
	C3.241,1.306,4.59,0.75,6.058,0.75c1.097,0,2.101,0.328,2.985,0.975c0.446,0.327,0.851,0.727,1.207,1.193
	c0.356-0.466,0.761-0.866,1.207-1.193c0.884-0.647,1.889-0.975,2.985-0.975c1.467,0,2.817,0.556,3.801,1.566
	c0.972,0.998,1.507,2.361,1.507,3.839c0,1.521-0.599,2.913-1.884,4.381c-1.15,1.314-2.803,2.647-4.717,4.191
	c-0.654,0.527-1.395,1.125-2.165,1.762C10.781,16.657,10.52,16.75,10.25,16.75z"/>
</svg>
