<svg version="1.1" id="Слой_1" xmlns="http://www.w3.org/2000/svg" xmlns:xlink="http://www.w3.org/1999/xlink" x="0px" y="0px"
	 width="11px" height="15px" viewBox="0 0 11 15" style="enable-background:new 0 0 11 15;" xml:space="preserve">
<style type="text/css">
	.st0{fill:#AFCA58;}
</style>
<path class="st0" d="M5.5,0C2.467,0,0,2.51,0,5.596c0,4.597,4.953,9.086,5.163,9.275C5.26,14.957,5.38,15,5.5,15
	c0.12,0,0.24-0.043,0.337-0.129C6.047,14.682,11,10.193,11,5.596C11,2.51,8.533,0,5.5,0z M5.5,4.025
	c0.842,0,1.528,0.705,1.528,1.571S6.342,7.167,5.5,7.167S3.972,6.462,3.972,5.596S4.658,4.025,5.5,4.025z"/>
</svg>
