<svg version="1.1" id="Слой_1" xmlns="http://www.w3.org/2000/svg" xmlns:xlink="http://www.w3.org/1999/xlink" x="0px" y="0px"
	 width="21.5px" height="21.5px" viewBox="0 0 21.5 21.5" style="enable-background:new 0 0 21.5 21.5;" xml:space="preserve">
<style type="text/css">
	.st0{fill:#201600;}
</style>
<g>
	<path class="st0" d="M20.75,21.5c-0.191,0-0.382-0.072-0.528-0.218l-6.38-6.325c-1.465,1.227-3.349,1.965-5.402,1.965
		C3.786,16.922,0,13.126,0,8.461S3.786,0,8.44,0c4.653,0,8.439,3.795,8.439,8.461c0,2.067-0.744,3.964-1.977,5.435l6.375,6.322
		c0.294,0.291,0.296,0.767,0.005,1.061C21.136,21.426,20.943,21.5,20.75,21.5z M8.44,1.5C4.613,1.5,1.5,4.623,1.5,8.461
		s3.113,6.961,6.94,6.961s6.939-3.123,6.939-6.961S12.267,1.5,8.44,1.5z"/>
</g>
</svg>
