<svg version="1.1" xmlns="http://www.w3.org/2000/svg" xmlns:xlink="http://www.w3.org/1999/xlink" x="0px" y="0px"
	 width="16px" height="16px" viewBox="0 0 16 16" style="enable-background:new 0 0 16 16;" xml:space="preserve">
<style type="text/css">
	.st0{fill:#B9BAC5;}
</style>
<g>
	<path class="st0" d="M15.283,16c-0.182,0-0.364-0.069-0.504-0.208l-4.539-4.499c-1.079,0.859-2.442,1.373-3.924,1.373
		C2.834,12.666,0,9.825,0,6.333C0,2.841,2.834,0,6.317,0s6.317,2.841,6.317,6.333c0,1.49-0.516,2.862-1.379,3.945l4.532,4.493
		c0.282,0.279,0.284,0.734,0.006,1.016C15.653,15.929,15.468,16,15.283,16z M6.317,1.437c-2.693,0-4.884,2.197-4.884,4.896
		s2.191,4.896,4.884,4.896s4.884-2.196,4.884-4.896S9.01,1.437,6.317,1.437z"/>
</g>
</svg>
