<svg version="1.1" id="Слой_1" xmlns="http://www.w3.org/2000/svg" xmlns:xlink="http://www.w3.org/1999/xlink" x="0px" y="0px"
	 width="14px" height="18px" viewBox="0 0 14 18" style="enable-background:new 0 0 14 18;" xml:space="preserve">
<style type="text/css">
	.st0{fill:#AFCA58;}
</style>
<path class="st0" d="M7,8.803c2.046,0,3.706-1.971,3.706-4.402C10.706,1.971,10.161,0,7,0S3.294,1.971,3.294,4.402
	C3.294,6.833,4.953,8.803,7,8.803z M0.001,15.524C0,15.376-0.001,15.482,0.001,15.524L0.001,15.524z M13.999,15.64
	C14.001,15.599,14,15.358,13.999,15.64L13.999,15.64z M13.991,15.346c-0.069-4.235-0.634-5.441-4.962-6.205
	C9.029,9.141,8.42,9.9,7,9.9S4.971,9.141,4.971,9.141C0.69,9.896,0.09,11.085,0.011,15.209c-0.006,0.337-0.009,0.354-0.011,0.315
	c0,0.073,0.001,0.209,0.001,0.445c0,0,1.03,2.031,6.999,2.031c5.968,0,6.999-2.031,6.999-2.031c0-0.152,0-0.257,0-0.329
	C13.998,15.664,13.995,15.617,13.991,15.346z"/>
</svg>
