<svg version="1.1" id="Слой_1" xmlns="http://www.w3.org/2000/svg" xmlns:xlink="http://www.w3.org/1999/xlink" x="0px" y="0px"
	 width="14px" height="14px" viewBox="0 0 14 14" style="enable-background:new 0 0 14 14;" xml:space="preserve">
<style type="text/css">
	.st0{fill:#AFCA58;}
</style>
<g>
	<g>
		<g>
			<path class="st0" d="M13.686,11.073l-2.162-2.167c-0.431-0.43-1.144-0.417-1.589,0.03l-1.089,1.091
				C8.777,9.99,8.705,9.95,8.63,9.908C7.943,9.526,7.001,9.002,6.01,8.009C5.017,7.013,4.494,6.068,4.112,5.378
				c-0.04-0.073-0.079-0.144-0.117-0.21l0.731-0.732l0.359-0.361c0.446-0.447,0.459-1.162,0.029-1.593L2.952,0.314
				c-0.43-0.431-1.143-0.417-1.589,0.03L0.753,0.959L0.77,0.975C0.565,1.237,0.395,1.538,0.268,1.863
				c-0.117,0.309-0.19,0.605-0.223,0.9c-0.285,2.372,0.796,4.54,3.731,7.482c4.057,4.066,7.327,3.759,7.468,3.744
				c0.307-0.037,0.602-0.11,0.901-0.227c0.321-0.126,0.622-0.297,0.882-0.501l0.013,0.012l0.617-0.606
				C14.103,12.22,14.116,11.505,13.686,11.073z"/>
		</g>
	</g>
</g>
</svg>
