<svg version="1.1" id="Слой_1" xmlns="http://www.w3.org/2000/svg" xmlns:xlink="http://www.w3.org/1999/xlink" x="0px" y="0px"
	 width="36px" height="48px" viewBox="0 0 36 48" style="enable-background:new 0 0 36 48;" xml:space="preserve">
<style type="text/css">
	.st0{fill:#AFCA58;}
</style>
<path class="st0" d="M18,0C8.075,0,0,8.033,0,17.907c0,14.711,16.208,29.075,16.899,29.68C17.213,47.862,17.607,48,18,48
	c0.393,0,0.787-0.138,1.102-0.414C19.791,46.982,36,32.618,36,17.907C36,8.033,27.925,0,18,0z M18,12.88c2.757,0,5,2.255,5,5.027
	s-2.243,5.027-5,5.027s-5-2.255-5-5.027S15.243,12.88,18,12.88z"/>
</svg>
