<svg version="1.1" id="Слой_1" xmlns="http://www.w3.org/2000/svg" xmlns:xlink="http://www.w3.org/1999/xlink" x="0px" y="0px"
	 width="19.5px" height="19.5px" viewBox="0 0 19.5 19.5" style="enable-background:new 0 0 19.5 19.5;" xml:space="preserve">
<style type="text/css">
	.st0{fill:none;stroke:#AFCA58;stroke-width:2.5;stroke-linecap:round;stroke-linejoin:round;stroke-miterlimit:10;}
</style>
<path class="st0" d="M1.981,1.61c0,0.199-0.164,0.36-0.365,0.36S1.25,1.809,1.25,1.61s0.164-0.36,0.365-0.36S1.981,1.411,1.981,1.61
	z M10.019,1.25c-0.202,0-0.365,0.161-0.365,0.36s0.164,0.36,0.365,0.36s0.365-0.161,0.365-0.36S10.22,1.25,10.019,1.25z
	 M17.885,1.25c-0.202,0-0.365,0.161-0.365,0.36s0.164,0.36,0.365,0.36s0.365-0.161,0.365-0.36S18.086,1.25,17.885,1.25z
	 M1.615,9.189c-0.202,0-0.365,0.161-0.365,0.36c0,0.199,0.164,0.36,0.365,0.36s0.365-0.161,0.365-0.36
	C1.981,9.35,1.817,9.189,1.615,9.189z M10.019,9.189c-0.202,0-0.365,0.161-0.365,0.36c0,0.199,0.164,0.36,0.365,0.36
	s0.365-0.161,0.365-0.36C10.384,9.35,10.22,9.189,10.019,9.189z M17.885,9.189c-0.202,0-0.365,0.161-0.365,0.36
	c0,0.199,0.164,0.36,0.365,0.36s0.365-0.161,0.365-0.36C18.25,9.35,18.086,9.189,17.885,9.189z M1.615,17.53
	c-0.202,0-0.365,0.161-0.365,0.36c0,0.199,0.164,0.36,0.365,0.36s0.365-0.161,0.365-0.36C1.981,17.691,1.817,17.53,1.615,17.53z
	 M10.019,17.53c-0.202,0-0.365,0.161-0.365,0.36c0,0.199,0.164,0.36,0.365,0.36s0.365-0.161,0.365-0.36
	C10.384,17.691,10.22,17.53,10.019,17.53z M17.885,17.53c-0.202,0-0.365,0.161-0.365,0.36c0,0.199,0.164,0.36,0.365,0.36
	s0.365-0.161,0.365-0.36C18.25,17.691,18.086,17.53,17.885,17.53z"/>
</svg>
