<svg version="1.1" id="Слой_1" xmlns="http://www.w3.org/2000/svg" xmlns:xlink="http://www.w3.org/1999/xlink" x="0px" y="0px"
	 width="23px" height="21px" viewBox="0 0 23 21" style="enable-background:new 0 0 23 21;" xml:space="preserve">
<style type="text/css">
	.st0{fill:#201600;}
</style>
<g>
	<path class="st0" d="M18.086,21H4.916c-0.901,0-1.684-0.578-1.951-1.439L0.089,9.286C-0.1,8.675,0.014,8.01,0.407,7.481
		c0.389-0.524,0.987-0.825,1.639-0.825h4.423V5.046C6.469,2.264,8.726,0,11.501,0s5.031,2.264,5.031,5.046v1.609h4.424
		c0.652,0,1.25,0.301,1.639,0.825c0.393,0.529,0.507,1.194,0.312,1.824l-2.864,10.237C19.771,20.422,18.987,21,18.086,21z
		 M2.046,8.121c-0.18,0-0.346,0.084-0.455,0.23C1.479,8.502,1.447,8.693,1.503,8.874l2.875,10.275
		c0.07,0.223,0.288,0.386,0.538,0.386h13.17c0.25,0,0.468-0.163,0.544-0.405l2.864-10.237c0.062-0.2,0.029-0.39-0.083-0.542
		c-0.109-0.146-0.275-0.23-0.455-0.23h-4.424v2.102c0,0.404-0.33,0.733-0.736,0.733c-0.406,0-0.736-0.328-0.736-0.733V8.121H7.942
		v2.102c0,0.404-0.33,0.733-0.736,0.733s-0.736-0.328-0.736-0.733V8.121H2.046z M7.942,6.656h7.118V5.046
		c0-1.974-1.596-3.581-3.559-3.581S7.942,3.072,7.942,5.046V6.656z"/>
</g>
</svg>
