<svg xmlns="http://www.w3.org/2000/svg" xmlns:xlink="http://www.w3.org/1999/xlink" x="0px" y="0px"
	 width="20px" height="21px" viewBox="0 0 20 21" style="enable-background:new 0 0 20 21;" xml:space="preserve">
<style type="text/css">
	.st0{fill:#201600;}
</style>
<g>
	<path class="st0" d="M17.245,21H2.756c-0.74,0-1.431-0.286-1.947-0.806c-0.537-0.541-0.832-1.295-0.808-2.069
		C0.1,14.83,1.999,11.971,5.508,9.809C4.539,8.747,3.981,7.36,3.981,5.888C3.981,2.641,6.681,0,10,0s6.019,2.641,6.019,5.888
		c0,1.474-0.562,2.866-1.536,3.93c3.639,2.274,5.495,5.071,5.517,8.324c0.005,0.787-0.303,1.546-0.847,2.081
		C18.645,20.724,17.967,21,17.245,21z M6.717,10.824c-2.404,1.393-5.093,3.748-5.202,7.345c-0.011,0.375,0.128,0.737,0.381,0.992
		c0.161,0.163,0.441,0.356,0.86,0.356h14.489c0.404,0,0.676-0.184,0.833-0.339c0.261-0.258,0.41-0.631,0.407-1.027
		c-0.019-2.826-1.771-5.288-5.209-7.323c-0.13,0.083-0.265,0.161-0.403,0.235c-0.366,0.197-0.828,0.063-1.027-0.297
		c-0.2-0.359-0.064-0.81,0.303-1.005c0.207-0.111,0.403-0.235,0.586-0.372c0.022-0.019,0.046-0.037,0.07-0.054
		c1.063-0.828,1.699-2.091,1.699-3.448c0-2.43-2.02-4.406-4.504-4.406S5.496,3.459,5.496,5.888c0,1.36,0.638,2.625,1.706,3.453
		c0.018,0.013,0.036,0.026,0.052,0.04c0.191,0.144,0.395,0.274,0.612,0.387c0.368,0.194,0.506,0.644,0.307,1.004
		c-0.199,0.36-0.658,0.496-1.026,0.301C6.999,10.996,6.856,10.913,6.717,10.824z"/>
</g>
</svg>
