<?xml version="1.0" encoding="utf-8"?>
<!-- Generator: Adobe Illustrator 21.0.0, SVG Export Plug-In . SVG Version: 6.00 Build 0)  -->
<svg version="1.1" id="Слой_1" xmlns="http://www.w3.org/2000/svg" xmlns:xlink="http://www.w3.org/1999/xlink" x="0px" y="0px"
	 width="16px" height="23px" viewBox="0 0 16 23" style="enable-background:new 0 0 16 23;" xml:space="preserve">
<style type="text/css">
	.st0{fill:#AFCA58;}
</style>
<g>
	<path class="st0" d="M10.932,23H5.068c-0.429,0-0.776-0.341-0.776-0.761s0.348-0.761,0.776-0.761h5.865
		c0.429,0,0.776,0.341,0.776,0.761S11.361,23,10.932,23z M8,20.5c-0.352,0-0.691-0.125-0.955-0.353C6.757,19.899,0,13.993,0,7.841
		C0,3.517,3.589,0,8,0s8,3.517,8,7.841c0,6.153-6.756,12.058-7.044,12.306C8.691,20.375,8.352,20.5,8,20.5z M8.442,19.576h0.01
		H8.442z M8,1.521c-3.555,0-6.447,2.835-6.447,6.319c0,5.227,5.702,10.443,6.448,11.103c0.745-0.66,6.447-5.876,6.447-11.103
		C14.447,4.356,11.555,1.521,8,1.521z M8,12.176c-2.119,0-3.843-1.689-3.843-3.765S5.881,4.645,8,4.645s3.843,1.689,3.843,3.765
		S10.119,12.176,8,12.176z M8,6.167c-1.263,0-2.29,1.007-2.29,2.244S6.737,10.654,8,10.654s2.29-1.006,2.29-2.244
		S9.263,6.167,8,6.167z"/>
</g>
</svg>
